<?xml version="1.0" encoding="UTF-8" standalone="no"?>
<svg
   xmlns:dc="http://purl.org/dc/elements/1.1/"
   xmlns:cc="http://creativecommons.org/ns#"
   xmlns:rdf="http://www.w3.org/1999/02/22-rdf-syntax-ns#"
   xmlns:svg="http://www.w3.org/2000/svg"
   xmlns="http://www.w3.org/2000/svg"
   viewBox="0 0 1793.875 636.9375"
   height="636.9375"
   width="1793.875"
   xml:space="preserve"
   id="svg2"
   version="1.1"><metadata
     id="metadata8"><rdf:RDF><cc:Work
         rdf:about=""><dc:format>image/svg+xml</dc:format><dc:type
           rdf:resource="http://purl.org/dc/dcmitype/StillImage" /></cc:Work></rdf:RDF></metadata><defs
     id="defs6" /><g
     transform="matrix(1.25,0,0,-1.25,0,636.9375)"
     id="g10"><g
       transform="scale(0.1)"
       id="g12"><path
         id="path14"
         style="fill:#ffffff;fill-opacity:1;fill-rule:nonzero;stroke:none"
         d="m 2547.69,134.332 c -1332.8,0 -2413.315,1080.548 -2413.315,2413.478 0,1332.85 1080.515,2413.31 2413.315,2413.31 1332.95,0 2413.41,-1080.46 2413.41,-2413.31 0,-1332.93 -1080.46,-2413.478 -2413.41,-2413.478 m 0,4961.208 C 1140.68,5095.54 -0.00390625,3954.82 -0.00390625,2547.81 -0.00390625,1140.72 1140.68,-0.0078125 2547.69,-0.0078125 3954.93,-0.0078125 5095.5,1140.72 5095.5,2547.81 c 0,1407.01 -1140.57,2547.73 -2547.81,2547.73" /><path
         id="path16"
         style="fill:#ff8700;fill-opacity:1;fill-rule:nonzero;stroke:none"
         d="m 2546.38,708.902 c -1013.58,0 -1834.821,823.998 -1834.821,1837.508 0,1013.68 821.241,1837.58 1834.821,1837.58 1013.45,0 1837.57,-824.08 1837.57,-1837.58 0,-1013.51 -824.12,-1837.508 -1837.57,-1837.508 m 1.31,4252.218 C 1214.9,4961.12 134.379,3880.66 134.379,2547.81 134.379,1214.88 1214.9,134.332 2547.69,134.332 c 1332.96,0 2413.41,1080.548 2413.41,2413.478 0,1332.85 -1080.45,2413.31 -2413.41,2413.31" /><path
         id="path18"
         style="fill:#ffffff;fill-opacity:1;fill-rule:nonzero;stroke:none"
         d="m 2546.38,847.027 c -937.39,0 -1696.763,762.053 -1696.763,1699.383 0,937.6 759.373,1699.57 1696.763,1699.57 937.31,0 1699.52,-762.14 1699.52,-1699.57 0,-937.33 -762.21,-1699.383 -1699.52,-1699.383 m 0,3536.963 c -1013.58,0 -1834.821,-823.9 -1834.821,-1837.58 0,-1013.5 821.241,-1837.512 1834.821,-1837.512 1013.45,0 1837.57,824.012 1837.57,1837.512 0,1013.51 -824.12,1837.58 -1837.57,1837.58" /><path
         id="path20"
         style="fill:#000000;fill-opacity:1;fill-rule:nonzero;stroke:none"
         d="m 2546.38,4245.98 c -937.39,0 -1696.763,-761.97 -1696.763,-1699.57 0,-937.33 759.373,-1699.383 1696.763,-1699.383 937.31,0 1699.52,762.053 1699.52,1699.383 0,937.43 -762.21,1699.57 -1699.52,1699.57 m 0.08,-162.88 c 849.25,0 1536.46,-687.48 1536.46,-1536.69 0,-849.13 -687.21,-1536.51 -1536.46,-1536.51 -849,0 -1533.88,687.38 -1533.88,1536.51 0,849.21 684.88,1536.69 1533.88,1536.69" /><path
         id="path22"
         style="fill:#ffffff;fill-opacity:1;fill-rule:nonzero;stroke:none"
         d="m 2546.46,4083.1 c -849,0 -1533.89,-687.48 -1533.89,-1536.68 0,-849.14 684.89,-1536.52 1533.89,-1536.52 849.25,0 1536.46,687.38 1536.46,1536.52 0,849.2 -687.21,1536.68 -1536.46,1536.68" /><path
         id="path24"
         style="fill:#000000;fill-opacity:1;fill-rule:nonzero;stroke:none"
         d="m 2627.77,3501.4 c 622.59,-19.32 984.57,-302.57 984.57,-718.05 0,-379.8 -234.82,-587.67 -1007.63,-724.8 -575.62,-102.26 -727.94,-241.08 -727.94,-478.11 0,-145.23 48.53,-256.46 133.48,-356.09 -129.3,81.19 -233.23,248.83 -233.23,438.58 0,116.58 34.44,227.12 112.55,320.58 v 1357.83 c -19.21,1.22 -38.61,1.83 -58.48,1.83 -8.61,0 -17,-0.35 -25.2,-0.87 -10.5,-0.7 -13.75,11.5 -2.73,16.26 26.66,11.15 55.57,22.13 86.41,32.49 v 285.36 c 0,5.89 4.66,10.63 10.54,10.63 h 154.78 c 5.77,0 10.59,-4.74 10.59,-10.63 v -236.58 c 184.91,42.43 396.27,66.77 562.29,61.57 M 2065.48,2123.83 c 20.98,11.42 43.45,22.13 66.95,32.32 279.87,120.63 418.37,332.72 418.37,593.75 0,258.81 -191.25,484.34 -485.32,563.22" /><path
         id="path26"
         style="fill:#ff8700;fill-opacity:1;fill-rule:nonzero;stroke:none"
         d="m 5605.85,2181.02 -81,-522.83 h 102.57 c 197.11,0 282.6,125.11 282.6,313.11 0,114.3 -54.04,209.72 -210.6,209.72 z m -66.6,66.59 h 180 c 198.83,0 275.32,-110.7 275.32,-256.44 0,-269.11 -158.36,-399.57 -386.03,-399.57 h -170.98" /><path
         id="path28"
         style="fill:#ff8700;fill-opacity:1;fill-rule:nonzero;stroke:none"
         d="m 6254.49,1874.14 c 73.82,0 134.98,20.73 134.98,77.4 0,50.43 -38.69,75.55 -91.76,75.55 -72.01,0 -116.96,-58.42 -139.47,-145.74 0,0 54.85,-7.21 96.25,-7.21 m -25.16,-295.12 c -116.99,0 -163.77,82.78 -163.77,199.79 0,197.95 114.24,317.62 251.91,317.62 90.89,0 147.59,-55.81 147.59,-129.59 0,-129.59 -116.96,-155.69 -232.14,-155.69 -44.08,0 -86.4,7.21 -86.4,7.21 -10.83,-106.13 17.08,-170.98 101.7,-170.98 52.17,0 99.88,13.54 146.66,34.18 l 17.1,-55.8 c -46.77,-25.12 -113.4,-46.74 -182.65,-46.74" /><path
         id="path30"
         style="fill:#ff8700;fill-opacity:1;fill-rule:nonzero;stroke:none"
         d="m 6826.71,1591.6 5.4,53.14 c -27.91,-36.9 -90.89,-65.72 -151.21,-65.72 -95.35,0 -158.36,61.16 -139.47,184.51 l 49.52,320.32 h 72 l -46.81,-306.88 c -13.51,-90.84 20.71,-129.59 83.71,-129.59 56.64,0 110.66,34.18 142.12,76.52 l 55.8,359.95 h 72.88 l -76.47,-492.25" /><path
         id="path32"
         style="fill:#ff8700;fill-opacity:1;fill-rule:nonzero;stroke:none"
         d="m 7289.96,1602.4 c -25.17,-15.29 -65.66,-23.38 -92.68,-23.38 -93.57,0 -122.36,56.68 -106.19,162.9 l 42.32,278.06 h -81 l 8.12,49.46 82.77,14.41 30.61,139.43 h 63.87 l -21.57,-139.43 h 144.87 l -9.93,-63.87 H 7206.28 L 7164,1746.4 c -9.9,-61.25 -2.71,-99.02 49.5,-99.02 18,0 47.7,5.45 64.78,10.81" /><path
         id="path34"
         style="fill:#ff8700;fill-opacity:1;fill-rule:nonzero;stroke:none"
         d="m 7696.63,1994.76 c -33.28,19.78 -69.29,33.3 -115.19,33.3 -44.08,0 -88.2,-24.34 -88.2,-67.48 0,-81.87 192.59,-102.62 192.59,-218.66 0,-100.77 -89.99,-162.9 -198.86,-162.9 -53.98,0 -103.47,18.03 -141.25,51.33 l 35.96,60.25 c 35.1,-25.22 76.46,-43.22 118.78,-43.22 54.92,0 104.37,32.42 104.37,83.73 0,80.99 -192.55,101.65 -192.55,217.71 0,90.05 78.31,147.6 182.66,147.6 49.51,0 103.5,-19.77 134.06,-43.23" /><path
         id="path36"
         style="fill:#ff8700;fill-opacity:1;fill-rule:nonzero;stroke:none"
         d="m 8154.54,1999.25 c -29.66,18.02 -72.88,28.81 -113.37,28.81 -83.68,0 -172.75,-70.2 -172.75,-227.72 0,-88.12 41.39,-152.96 122.35,-152.96 37.78,0 87.31,12.66 120.59,29.71 l 13.52,-57.57 c -38.72,-23.43 -102.6,-40.5 -153.93,-40.5 -130.45,0 -182.62,97.18 -182.62,202.44 0,204.25 125.04,314.97 272.64,314.97 46.8,0 91.79,-12.59 125.07,-37.79" /><path
         id="path38"
         style="fill:#ff8700;fill-opacity:1;fill-rule:nonzero;stroke:none"
         d="m 8585.47,1591.6 h -71.93 l 44.05,291.6 c 13.52,79.14 2.72,144.86 -77.36,144.86 -58.49,0 -117.9,-52.18 -142.2,-99.01 l -52.17,-337.45 h -72 l 105.28,683.87 h 72.87 l -38.68,-249.25 c 49.48,49.56 91.8,70.2 146.69,70.2 118.73,0 151.18,-81.01 133.16,-197.07" /><path
         id="path40"
         style="fill:#ff8700;fill-opacity:1;fill-rule:nonzero;stroke:none"
         d="m 8833.72,2275.46 h 72.87 L 8800.4,1591.59 h -71.96" /><path
         id="path42"
         style="fill:#ff8700;fill-opacity:1;fill-rule:nonzero;stroke:none"
         d="m 9268.31,1814.74 31.47,143.13 c -21.61,47.69 -77.41,70.19 -129.58,70.19 -93.57,0 -140.34,-120.62 -140.34,-238.44 0,-69.31 21.58,-142.24 87.3,-142.24 57.58,0 125.05,80.12 151.15,167.36 m 0,-124.14 c -38.72,-64.84 -95.39,-111.58 -170.07,-111.58 -107.07,0 -149.41,85.49 -149.41,190.74 0,174.57 84.62,326.66 242.08,326.66 48.61,0 105.28,-17.05 129.57,-56.68 l 14.39,44.1 h 56.7 l -50.39,-270.86 -9.02,-221.38 h -61.14" /><path
         id="path44"
         style="fill:#ff8700;fill-opacity:1;fill-rule:nonzero;stroke:none"
         d="m 9765.77,1591.6 45.03,291.6 c 12.58,79.14 1.81,143.89 -81,143.89 -60.29,0 -117.86,-45.86 -144.87,-98.04 l -52.21,-337.45 h -71.96 l 75.59,492.25 h 57.57 l 0.87,-60.27 c 32.44,38.66 89.09,72.84 155.72,72.84 121.48,0 153.86,-81.01 134.94,-199.8 l -46.74,-305.02" /><path
         id="path46"
         style="fill:#ff8700;fill-opacity:1;fill-rule:nonzero;stroke:none"
         d="m 10310.1,1830.04 20.7,127.83 c -21.6,47.7 -68.4,70.2 -120.6,70.2 -93.6,0 -140.4,-120.63 -140.4,-238.44 0,-69.33 21.6,-142.25 87.3,-142.25 61.2,0 130.5,89.08 153,182.66 m -1.8,-136.72 c -37.8,-66.59 -93.6,-114.3 -170.1,-114.3 -107,0 -149.37,85.49 -149.37,190.75 0,174.57 84.57,326.66 242.07,326.66 43.2,0 92.7,-18.89 114.3,-47.72 l 34.2,226.75 h 73.7 l -71.9,-462.48 -9.1,-221.38 h -61.1" /><path
         id="path48"
         style="fill:#000000;fill-opacity:1;fill-rule:nonzero;stroke:none"
         d="m 5823.75,3023.73 c 52.22,0 92.53,35.03 92.53,91.21 v 19.17 c 0,56.17 -40.31,92.53 -92.53,92.53 h -130.86 c -13.88,0 -22.47,-8.6 -22.47,-22.47 V 3046.2 c 0,-13.88 8.59,-22.47 22.47,-22.47 z m -315.92,-477.86 c -13.88,0 -22.47,8.6 -22.47,22.47 v 804.36 c 0,13.88 8.59,22.48 22.47,22.48 h 312.61 c 181.1,0 270.99,-99.8 270.99,-259.09 v -20.49 c 0,-133.51 -89.89,-259.75 -271.64,-259.75 h -126.9 c -13.88,0 -22.47,-8.59 -22.47,-22.47 v -265.04 c 0,-13.87 -8.59,-22.47 -22.48,-22.47" /><path
         id="path50"
         style="fill:#000000;fill-opacity:1;fill-rule:nonzero;stroke:none"
         d="m 6243.44,2568.35 v 810.97 c 0,13.87 8.59,22.47 22.47,22.47 h 140.11 c 13.88,0 22.48,-8.6 22.48,-22.47 v -810.97 c 0,-13.89 -8.6,-22.47 -22.48,-22.47 h -140.11 c -13.88,0 -22.47,8.58 -22.47,22.47" /><path
         id="path52"
         style="fill:#000000;fill-opacity:1;fill-rule:nonzero;stroke:none"
         d="m 7098.02,3121.55 v 23.13 c 0,46.93 -40.32,81.96 -92.54,81.96 h -157.96 c -13.88,0 -22.47,-8.6 -22.47,-22.47 V 3061.4 c 0,-13.87 8.59,-22.46 22.47,-22.46 h 157.96 c 50.9,0 92.54,35.69 92.54,82.61 M 6640,2568.35 v 804.35 c 0,13.88 8.59,22.48 22.46,22.48 h 341.04 c 169.2,0 270.32,-101.13 270.32,-261.07 0,-91.87 -35.69,-160.61 -111.69,-206.87 -6.61,-3.97 -9.92,-7.94 -9.92,-13.22 0,-5.29 1.33,-9.26 3.31,-14.54 l 129.54,-315.27 c 5.94,-13.88 8.59,-22.47 8.59,-27.75 0,-5.3 -5.29,-10.58 -15.86,-10.58 h -159.95 c -5.28,0 -9.91,3.31 -13.21,10.58 l -128.88,310.63 c -2.64,6.62 -7.94,9.25 -13.89,9.25 h -114.34 c -13.88,0 -22.47,-8.59 -22.47,-22.47 v -285.52 c 0,-13.88 -8.59,-22.47 -22.46,-22.47 h -140.13 c -13.87,0 -22.46,8.59 -22.46,22.47" /><path
         id="path54"
         style="fill:#000000;fill-opacity:1;fill-rule:nonzero;stroke:none"
         d="m 7808.51,2849.25 c 11.89,0 15.86,5.29 13.89,13.88 l -76.02,285.51 -3.3,27.11 h -23.12 l -3.32,-27.11 -76.67,-285.51 c -1.99,-8.59 1.32,-13.88 13.23,-13.88 z m -204.23,-168.54 c -10.57,0 -13.21,-1.32 -15.2,-7.92 l -31.06,-116.99 c -1.98,-6.6 -6.61,-9.92 -13.23,-9.92 h -163.24 c -9.92,0 -15.21,3.32 -15.21,9.92 0,3.29 1.32,9.25 2.64,12.54 0.67,2 241.9,819.57 241.9,819.57 2.65,9.25 11.24,13.88 21.17,13.88 h 200.26 c 9.9,0 18.49,-4.63 21.14,-13.88 l 242.56,-824.86 c 1.33,-3.96 1.33,-5.26 1.33,-7.25 0,-6.6 -4.63,-9.92 -14.54,-9.92 h -163.92 c -7.26,0 -11.89,3.32 -13.87,9.92 l -31.07,116.99 c -1.98,6.6 -5.28,7.92 -15.2,7.92" /><path
         id="path56"
         style="fill:#000000;fill-opacity:1;fill-rule:nonzero;stroke:none"
         d="m 8310.15,2568.35 v 635.83 c 0,13.87 -8.59,22.46 -22.47,22.46 h -148.05 c -13.88,0 -22.47,8.59 -22.47,22.47 v 123.6 c 0,13.88 8.59,22.47 22.47,22.47 h 526.11 c 13.87,0 22.46,-8.59 22.46,-22.47 v -123.6 c 0,-13.88 -8.59,-22.47 -22.46,-22.47 h -148.07 c -13.87,0 -22.45,-8.59 -22.45,-22.46 v -635.83 c 0,-13.89 -8.6,-22.47 -22.48,-22.47 h -140.13 c -13.87,0 -22.46,8.58 -22.46,22.47" /><path
         id="path58"
         style="fill:#000000;fill-opacity:1;fill-rule:nonzero;stroke:none"
         d="m 8875.9,2545.88 c -13.88,0 -22.47,8.58 -22.47,22.46 v 804.36 c 0,13.89 8.59,22.48 22.47,22.48 h 516.85 c 13.87,0 22.48,-8.59 22.48,-22.48 v -123.59 c 0,-13.88 -8.61,-22.47 -22.48,-22.47 h -331.79 c -13.88,0 -22.47,-8.59 -22.47,-22.46 v -123.61 c 0,-13.87 8.59,-22.48 22.47,-22.48 h 272.3 c 13.88,0 22.48,-8.59 22.48,-22.45 v -123.6 c 0,-13.88 -8.6,-22.49 -22.48,-22.49 h -272.3 c -13.88,0 -22.47,-8.59 -22.47,-22.46 v -130.2 c 0,-13.89 8.59,-22.48 22.47,-22.48 h 331.79 c 13.87,0 22.48,-8.59 22.48,-22.46 v -123.61 c 0,-13.88 -8.61,-22.46 -22.48,-22.46" /><path
         id="path60"
         style="fill:#000000;fill-opacity:1;fill-rule:nonzero;stroke:none"
         d="m 9600.27,2568.35 v 810.97 c 0,13.87 8.59,22.47 22.48,22.47 h 129.52 c 8.61,0 15.21,-3.31 19.18,-9.26 l 263.75,-457.36 c 15.8,-26.44 33.7,-63.46 36.3,-72.04 h 5.3 c -14.5,63.45 -25.8,169.85 -25.8,244.55 v 271.64 c 0,13.87 8.6,22.47 22.5,22.47 h 140.1 c 13.9,0 22.5,-8.6 22.5,-22.47 v -810.97 c 0,-13.89 -8.6,-22.47 -22.5,-22.47 h -128.2 c -8.6,0 -14.5,2.65 -19.8,10.58 l -267.06,440.18 c -15.86,28.41 -27.75,55.52 -27.75,58.16 h -5.29 c 10.57,-37.68 19.82,-129.55 19.82,-216.13 v -270.32 c 0,-13.89 -8.59,-22.47 -22.46,-22.47 h -140.11 c -13.89,0 -22.48,8.58 -22.48,22.47" /><path
         id="path62"
         style="fill:#000000;fill-opacity:1;fill-rule:nonzero;stroke:none"
         d="m 10786,3023.73 c 52.2,0 92.5,35.03 92.5,91.21 v 19.17 c 0,56.17 -40.3,92.53 -92.5,92.53 h -130.9 c -13.9,0 -22.5,-8.6 -22.5,-22.47 V 3046.2 c 0,-13.88 8.6,-22.47 22.5,-22.47 z m -316,-477.86 c -13.8,0 -22.4,8.6 -22.4,22.47 v 804.36 c 0,13.88 8.6,22.48 22.4,22.48 h 312.7 c 181.1,0 271,-99.8 271,-259.09 v -20.49 c 0,-133.51 -89.9,-259.75 -271.7,-259.75 h -126.9 c -13.9,0 -22.5,-8.59 -22.5,-22.47 v -265.04 c 0,-13.87 -8.6,-22.47 -22.4,-22.47" /><path
         id="path64"
         style="fill:#000000;fill-opacity:1;fill-rule:nonzero;stroke:none"
         d="m 11502.4,2849.25 c 11.9,0 15.9,5.29 13.9,13.88 l -76,285.51 -3.3,27.11 h -23.1 l -3.3,-27.11 -76.7,-285.51 c -2,-8.59 1.3,-13.88 13.2,-13.88 z m -204.2,-168.54 c -10.6,0 -13.2,-1.32 -15.2,-7.92 l -31.1,-116.99 c -2,-6.6 -6.6,-9.92 -13.2,-9.92 h -163.2 c -10,0 -15.2,3.32 -15.2,9.92 0,3.29 1.3,9.25 2.6,12.54 0.7,2 241.9,819.57 241.9,819.57 2.6,9.25 11.2,13.88 21.2,13.88 h 200.2 c 9.9,0 18.5,-4.63 21.2,-13.88 l 242.5,-824.86 c 1.4,-3.96 1.4,-5.26 1.4,-7.25 0,-6.6 -4.7,-9.92 -14.6,-9.92 h -163.9 c -7.3,0 -11.9,3.32 -13.9,9.92 l -31,116.99 c -2,6.6 -5.3,7.92 -15.3,7.92" /><path
         id="path66"
         style="fill:#000000;fill-opacity:1;fill-rule:nonzero;stroke:none"
         d="m 12381.4,3121.55 v 23.13 c 0,46.93 -40.3,81.96 -92.5,81.96 h -158 c -13.8,0 -22.4,-8.6 -22.4,-22.47 V 3061.4 c 0,-13.87 8.6,-22.46 22.4,-22.46 h 158 c 50.9,0 92.5,35.69 92.5,82.61 m -458,-553.2 v 804.35 c 0,13.88 8.6,22.48 22.5,22.48 h 341 c 169.2,0 270.3,-101.13 270.3,-261.07 0,-91.87 -35.6,-160.61 -111.6,-206.87 -6.7,-3.97 -10,-7.94 -10,-13.22 0,-5.29 1.4,-9.26 3.3,-14.54 l 129.6,-315.27 c 5.9,-13.88 8.6,-22.47 8.6,-27.75 0,-5.3 -5.3,-10.58 -15.9,-10.58 h -159.9 c -5.3,0 -9.9,3.31 -13.3,10.58 l -128.8,310.63 c -2.7,6.62 -8,9.25 -13.9,9.25 h -114.4 c -13.8,0 -22.4,-8.59 -22.4,-22.47 v -285.52 c 0,-13.88 -8.6,-22.47 -22.5,-22.47 h -140.1 c -13.9,0 -22.5,8.59 -22.5,22.47" /><path
         id="path68"
         style="fill:#000000;fill-opacity:1;fill-rule:nonzero;stroke:none"
         d="m 12875.8,2568.35 v 635.83 c 0,13.87 -8.6,22.46 -22.5,22.46 h -148 c -13.9,0 -22.5,8.59 -22.5,22.47 v 123.6 c 0,13.88 8.6,22.47 22.5,22.47 h 526.1 c 13.9,0 22.5,-8.59 22.5,-22.47 v -123.6 c 0,-13.88 -8.6,-22.47 -22.5,-22.47 h -148.1 c -13.8,0 -22.4,-8.59 -22.4,-22.46 v -635.83 c 0,-13.89 -8.6,-22.47 -22.5,-22.47 h -140.1 c -13.9,0 -22.5,8.58 -22.5,22.47" /><path
         id="path70"
         style="fill:#000000;fill-opacity:1;fill-rule:nonzero;stroke:none"
         d="m 13441.6,2545.88 c -13.9,0 -22.5,8.58 -22.5,22.46 v 804.36 c 0,13.89 8.6,22.48 22.5,22.48 h 516.8 c 13.9,0 22.5,-8.59 22.5,-22.48 v -123.59 c 0,-13.88 -8.6,-22.47 -22.5,-22.47 h -331.8 c -13.9,0 -22.5,-8.59 -22.5,-22.46 v -123.61 c 0,-13.87 8.6,-22.48 22.5,-22.48 h 272.3 c 13.9,0 22.5,-8.59 22.5,-22.45 v -123.6 c 0,-13.88 -8.6,-22.49 -22.5,-22.49 h -272.3 c -13.9,0 -22.5,-8.59 -22.5,-22.46 v -130.2 c 0,-13.89 8.6,-22.48 22.5,-22.48 h 331.8 c 13.9,0 22.5,-8.59 22.5,-22.46 v -123.61 c 0,-13.88 -8.6,-22.46 -22.5,-22.46" /><path
         id="path72"
         style="fill:#000000;fill-opacity:1;fill-rule:nonzero;stroke:none"
         d="m 14165.9,2568.35 v 810.97 c 0,13.87 8.6,22.47 22.5,22.47 h 140.1 c 13.9,0 22.5,-8.6 22.5,-22.47 v -810.97 c 0,-13.89 -8.6,-22.47 -22.5,-22.47 h -140.1 c -13.9,0 -22.5,8.58 -22.5,22.47" /></g></g></svg>