<?xml version="1.0" encoding="UTF-8" standalone="no"?>
<!-- Created with PhotoLine 19.01 (www.pl32.de) -->
<!DOCTYPE svg PUBLIC "-//W3C//DTD SVG 1.1//EN" "http://www.w3.org/Graphics/SVG/1.1/DTD/svg11.dtd">
<svg width="509" height="509" viewBox="0 0 509 509" version="1.1" xmlns="http://www.w3.org/2000/svg" xmlns:xlink="http://www.w3.org/1999/xlink">
  <g transform="matrix(1.000084 0 0 0.999313 -84.963119 -84.898613)">
    <path fill="#ffffff" d="M594.51 339.73 C594.51 480.44 480.45 594.51 339.72 594.51 C199.02 594.51 84.96 480.44 84.96 339.73 C84.96 199.03 199.02 84.96 339.72 84.96 C480.45 84.96 594.51 199.03 594.51 339.73 Z"/>
  </g>
  <g transform="matrix(1.000084 0 0 0.999313 -84.963119 -84.898613)">
    <path fill="#ff8800" d="M581.06 339.73 C581.06 473.02 473.02 581.08 339.72 581.08 C206.44 581.08 98.39 473.02 98.39 339.73 C98.39 206.44 206.44 98.4 339.72 98.4 C473.02 98.4 581.06 206.44 581.06 339.73 Z"/>
  </g>
  <g transform="matrix(1.000084 0 0 0.999313 -84.963119 -84.898613)">
    <path fill="#ffffff" d="M339.59 156.11 C238.24 156.11 156.11 238.5 156.11 339.87 C156.11 441.22 238.24 523.62 339.59 523.62 C440.94 523.62 523.35 441.22 523.35 339.87 C523.35 238.52 440.94 156.11 339.59 156.11 L339.59 156.11 Z"/>
    <path fill="#ffffff" d="M339.59 169.91 C245.85 169.91 169.92 246.11 169.92 339.87 C169.92 433.6 245.85 509.81 339.59 509.81 C433.32 509.81 509.55 433.6 509.55 339.87 C509.55 246.13 433.32 169.91 339.59 169.91 L339.59 169.91 Z"/>
    <path fill="#1d1d1b" d="M291.5 382.13 C293.6 380.98 295.85 379.91 298.2 378.89 C326.19 366.83 340.04 345.62 340.04 319.52 C340.04 293.64 320.91 271.08 291.5 263.2 L291.5 382.13 L291.5 382.13 Z M347.73 244.37 C409.99 246.3 446.19 274.63 446.19 316.17 C446.19 354.15 422.71 374.94 345.43 388.65 C287.86 398.88 272.63 412.76 272.63 436.47 C272.63 450.99 277.49 462.11 285.98 472.07 C273.05 463.96 262.66 447.19 262.66 428.22 C262.66 416.56 266.1 405.51 273.91 396.16 L273.91 260.38 C271.99 260.25 270.05 260.19 268.06 260.19 C267.2 260.19 266.36 260.23 265.54 260.28 C264.49 260.35 264.17 259.13 265.27 258.65 C267.94 257.54 270.83 256.44 273.91 255.4 L273.91 226.87 C273.91 226.28 274.38 225.8 274.97 225.8 L290.45 225.8 C291.02 225.8 291.51 226.28 291.51 226.87 L291.51 250.53 C309.99 246.28 331.13 243.85 347.73 244.37 L347.73 244.37 Z"/>
    <path fill="#1d1d1b" d="M339.6 186.2 C424.53 186.2 493.25 254.95 493.25 339.87 C493.25 424.78 424.53 493.52 339.6 493.52 C254.7 493.52 186.21 424.78 186.21 339.87 C186.21 254.95 254.7 186.2 339.6 186.2 L339.6 186.2 Z M339.59 169.91 C245.85 169.91 169.92 246.11 169.92 339.87 C169.92 433.6 245.85 509.81 339.59 509.81 C433.32 509.81 509.55 433.6 509.55 339.87 C509.55 246.13 433.32 169.91 339.59 169.91 L339.59 169.91 Z"/>
  </g>
</svg>
